<svg height="31" width="211" viewBox="0 0 422 62" overflow="visible" xmlns="http://www.w3.org/2000/svg">
	<path d="M65.3 60.3H46.5L42.8 49H22.3l-3.6 11.3H0L20.8 0H45l20.3 60.3zM32.7 13.6L26 34.8h13.1l-6.4-21.2zM92.9 60.3H69.3V0h25c21.9 0 34 11.8 34 29.7-.1 18.6-12.7 30.6-35.4 30.6zm0-45.7h-4.7v31.2h5.7c9.5 0 15.2-4.7 15.2-15.4 0-11.3-5.1-15.8-16.2-15.8zM156.6 60.3H133V0h25c21.9 0 34 11.8 34 29.7-.1 18.6-12.7 30.6-35.4 30.6zm.1-45.7H152v31.2h5.7c9.5 0 15.2-4.7 15.2-15.4-.1-11.3-5.1-15.8-16.2-15.8zM197.8 60.3V9.7h16v50.6h-16zM251 22.7v37.6h-16V22.7h-15.3v-13h46.6v13H251zM295.3 61.5c-13.4 0-23.6-5.8-23.6-21.1V9.7h16v28.8c0 6.8 2.3 10 7.9 10 5.3 0 7.5-2.5 7.5-9.6V9.7H319v29.4c-.1 15.6-9.8 22.4-23.7 22.4zM346.1 60.3h-19.8V9.7h21c18.4 0 28.5 9.9 28.5 24.9 0 15.6-10.6 25.7-29.7 25.7zm.1-38.4h-4v26.2h4.8c7.9 0 12.7-4 12.7-13 0-9.4-4.2-13.2-13.5-13.2zM382.3 60.3V9.7h39.5v12.4h-24v6.6h19v12.4h-19v6.8h24v12.4h-39.5z" fill="#C23627"/>
</svg>
