<svg width="110" height="29" viewBox="0 0 110 29" fill="none" xmlns="http://www.w3.org/2000/svg">
<path d="M41.3479 4.10938C41.605 4.10938 41.8326 4.1473 42.0314 4.22407C42.2303 4.30085 42.4005 4.41555 42.5411 4.5691C42.6817 4.72265 42.7881 4.89193 42.8584 5.076C42.9287 5.26007 42.9638 5.4608 42.9638 5.6754C42.9638 5.8826 42.9287 6.07777 42.8584 6.26C42.7881 6.44222 42.6826 6.61242 42.5411 6.76967C42.4005 6.92692 42.2303 7.04532 42.0314 7.12395C41.8326 7.20257 41.6041 7.24235 41.3479 7.24235C41.0907 7.24235 40.8632 7.20257 40.6634 7.12395C40.4636 7.04532 40.2943 6.92692 40.1537 6.76967C40.0131 6.61242 39.9067 6.44222 39.8364 6.26C39.7661 6.07777 39.731 5.8826 39.731 5.6754C39.731 5.45987 39.7661 5.26007 39.8364 5.076C39.9067 4.89193 40.0122 4.72265 40.1537 4.5691C40.2943 4.41555 40.4645 4.30085 40.6634 4.22407C40.8622 4.1473 41.0907 4.10938 41.3479 4.10938ZM42.4912 9.48177V15.6996V21.9175H41.3349H40.1787V15.6996V9.48177H41.3349H42.4912Z" fill="#AAAAAA"/>
<path d="M47.707 9.48125L47.8559 11.4459C48.4525 10.6504 49.1528 10.0825 49.9575 9.7421C50.7613 9.40262 51.6114 9.23242 52.5068 9.23242C54.231 9.23242 55.5205 9.7014 56.3742 10.6375C57.228 11.5745 57.6554 12.9222 57.6554 14.6788V21.9169H55.3419V14.6705C55.3419 13.579 55.1347 12.7187 54.7203 12.0897C54.3059 11.4607 53.5678 11.1462 52.5068 11.1462C51.5282 11.1462 50.679 11.3285 49.9575 11.692C49.236 12.0564 48.5848 12.6105 48.0048 13.3542V21.9151H45.6914V9.48125H47.707Z" fill="#AAAAAA"/>
<path d="M61.5111 9.48192V8.66144C61.5111 7.94827 61.635 7.29337 61.8839 6.69674C62.1327 6.10012 62.4805 5.58212 62.9282 5.14182C63.3759 4.70244 63.9105 4.36297 64.5321 4.12247C65.1537 3.88197 65.8382 3.76172 66.5838 3.76172C67.6281 3.76172 68.5568 3.90694 69.3699 4.19739C70.182 4.48784 70.9701 4.92259 71.7323 5.50349V18.3379C71.7323 18.9844 71.8526 19.4118 72.0931 19.619C72.3336 19.8262 72.8266 19.9298 73.5731 19.9298V22.0443C73.4732 22.061 73.3742 22.0693 73.2743 22.0693C73.1753 22.0693 73.0754 22.0693 72.9755 22.0693C72.3123 22.0693 71.7564 21.974 71.3087 21.7835C70.861 21.5929 70.4956 21.3238 70.2144 20.975C69.9323 20.6272 69.7297 20.1999 69.6048 19.6939C69.4809 19.1879 69.418 18.6209 69.418 17.9901V6.59684C68.9869 6.28234 68.5559 6.06219 68.1248 5.93824C67.6938 5.81429 67.1961 5.75139 66.6328 5.75139C65.6042 5.75139 64.879 6.00854 64.4563 6.52284C64.0336 7.03714 63.8217 7.72534 63.8217 8.58744V9.48284H67.6022L67.5023 11.3985L63.8217 11.2746V21.9185H61.5083V11.3976L59.3447 11.0988V9.48192H61.5111Z" fill="#AAAAAA"/>
<path d="M88.4025 15.7011C88.4025 16.6964 88.2203 17.5918 87.8558 18.3873C87.4914 19.1828 86.9993 19.8636 86.3786 20.4269C85.7579 20.9911 85.0253 21.4222 84.1808 21.72C83.3372 22.0188 82.4344 22.1677 81.4752 22.1677C80.515 22.1677 79.6132 22.0188 78.7686 21.72C77.9241 21.4213 77.1915 20.9902 76.5708 20.4269C75.9502 19.8636 75.4581 19.1837 75.0936 18.3873C74.7292 17.5918 74.5479 16.6964 74.5479 15.7011C74.5479 14.7058 74.7301 13.8104 75.0936 13.0148C75.4581 12.2193 75.9502 11.5395 76.5708 10.9752C77.1915 10.4119 77.9241 9.97993 78.7686 9.68208C79.6132 9.3833 80.515 9.23438 81.4752 9.23438C82.4353 9.23438 83.3372 9.3833 84.1808 9.68208C85.0253 9.98085 85.7579 10.4119 86.3786 10.9752C86.9993 11.5395 87.4914 12.2184 87.8558 13.0148C88.2203 13.8104 88.4025 14.7058 88.4025 15.7011ZM76.7873 15.7011C76.7873 17.1357 77.2026 18.2661 78.0342 19.0903C78.8658 19.9154 80.0128 20.327 81.4761 20.327C82.9385 20.327 84.0865 19.9144 84.9171 19.0903C85.7487 18.2661 86.164 17.1357 86.164 15.7011C86.164 14.2664 85.7478 13.137 84.9171 12.3119C84.0865 11.4868 82.9385 11.0751 81.4761 11.0751C80.0128 11.0751 78.8658 11.4877 78.0342 12.3119C77.2026 13.136 76.7873 14.2664 76.7873 15.7011Z" fill="#AAAAAA"/>
<path d="M89.3154 9.48242H91.7029L95.0356 19.7545H95.2345L98.5423 9.48242H100.433L103.841 19.7545H104.04L107.198 9.48242H109.512L105.334 21.919H102.324L99.5376 13.3628H99.3887L96.5785 21.919H93.4946L89.3154 9.48242Z" fill="#AAAAAA"/>
<path d="M32.6241 9.60412C31.0239 0.628847 19.8564 -0.830803 13.1927 0.356897C9.33079 1.04602 5.74641 2.95892 3.35714 5.60627C0.560865 8.70502 -0.519535 12.5715 0.23249 16.7895C1.15009 21.939 5.92309 28.3835 9.66194 28.3835C9.84416 28.3835 10.0236 28.3677 10.2003 28.3363C12.9771 27.8414 13.8069 24.9582 14.6098 22.1693C14.6727 21.951 14.7356 21.7336 14.7985 21.5172C16.6799 21.803 18.7316 21.7864 20.8332 21.4117C28.26 20.0899 33.5491 14.7915 32.6241 9.60412ZM20.5076 19.5886C18.7149 19.9077 16.9694 19.9456 15.3673 19.743C16.0953 17.7487 17.1082 16.155 19.2144 15.7794C22.3224 15.2253 24.6414 14.7702 26.1695 13.959C27.9686 13.0044 28.6633 11.5309 28.2924 9.45242C27.8077 6.73385 23.1124 4.09482 16.0833 4.3825C12.3713 4.53512 9.15874 5.97257 7.26804 8.32577C5.86204 10.0768 5.30056 12.2357 5.68721 14.4049C6.17099 17.1197 8.26426 19.2704 11.2122 20.5182L11.7469 18.7699C9.46676 17.7663 7.87761 16.1291 7.51316 14.0793C7.21716 12.4217 7.63249 10.8334 8.71474 9.48665C10.2697 7.55062 12.9836 6.3657 16.161 6.23527C16.5005 6.2214 16.8316 6.214 17.1535 6.214C23.3186 6.214 26.2722 8.67542 26.4683 9.7771C26.6995 11.0758 26.3943 11.7409 25.3018 12.3208C24.0142 13.0044 21.735 13.4466 18.8897 13.9535C16.2563 14.4234 14.8641 16.2234 13.966 18.2797C13.8069 18.6432 12.6978 22.1092 12.634 22.3247C11.9078 24.7676 11.2816 26.2597 9.87561 26.5103C7.83321 26.8757 3.01859 21.8511 2.05844 16.463C1.41001 12.8296 2.33594 9.50515 4.73446 6.84762C6.85364 4.49997 10.0551 2.7989 13.5192 2.181C14.5293 2.00062 15.8419 1.8776 17.2932 1.8776C19.2727 1.8776 21.5121 2.10792 23.6008 2.73785C27.7503 3.98937 30.1729 6.40825 30.8 9.92787C31.5437 14.1107 26.928 18.4443 20.5076 19.5886Z" fill="#AAAAAA"/>
</svg>
